# AST/ASF file generated using VICON BodyLanguage
# -----------------------------------------------
:version 1.10
:name VICON
:units
  mass 1.0
  length 0.45
  angle deg
:documentation
   .ast/.asf automatically generated from VICON data using
   VICON BodyBuilder and BodyLanguage model FoxedUp or BRILLIANT.MOD
:root
   order TX TY TZ RX RY RZ
   axis XYZ
   position 0 0 0  
   orientation 0 0 0 
:bonedata
  begin
     id 1 
     name lhipjoint
     direction 0.693937 -0.600361 0.397515 
     length 2.37164 
     axis 0 0 0  XYZ
  end
  begin
     id 2 
     name lfemur
     direction 0.34202 -0.939693 0  
     length 6.18497  
     axis 0 0 20  XYZ
    dof rx ry rz
    limits (-160.0 20.0)
           (-70.0 70.0)
           (-60.0 70.0)
  end
  begin
     id 3 
     name ltibia
     direction 0.34202 -0.939693 0   
     length 6.91601   
     axis 0 0 20   XYZ
    dof rx
    limits (-10.0 170.0)
  end
  begin
     id 4 
     name lfoot
     direction 0.0978718 -0.2689 0.958182   
     length 1.81453   
     axis -90 7.62852e-016 20   XYZ
    dof rx rz
    limits (-45.0 90.0)
           (-70.0 20.0)
  end
  begin
     id 5 
     name ltoes
     direction 1.53569e-011 -4.21951e-011 1   
     length 0.912052   
     axis -90 7.62852e-016 20   XYZ
    dof rx
    limits (-90.0 20.0)
  end
  begin
     id 6 
     name rhipjoint
     direction -0.643996 -0.637876 0.422354   
     length 2.23216  
     axis 0 0 0  XYZ 
  end
  begin
     id 7 
     name rfemur
     direction -0.34202 -0.939693 0   
     length 6.15404   
     axis 0 0 -20   XYZ
    dof rx ry rz
    limits (-160.0 20.0)
           (-70.0 70.0)
           (-70.0 60.0)
  end
  begin
     id 8 
     name rtibia
     direction -0.34202 -0.939693 0   
     length 6.86744   
     axis 0 0 -20   XYZ
    dof rx
    limits (-10.0 170.0)
 end
 begin
     id 9 
     name rfoot
     direction -0.118701 -0.326127 0.937844   
     length 1.9243  
     axis -90 -7.62852e-016 -20   XYZ
    dof rx rz
    limits (-45.0 90.0)
           (-20.0 70.0)
  end
  begin
     id 10 
     name rtoes
     direction -1.5356e-011 -4.2181e-011 1   
     length 0.958865   
     axis -90 -7.62852e-016 -20   XYZ
    dof rx
    limits (-90.0 20.0)
  end
  begin
     id 11 
     name lowerback
     direction 0.0310826 0.968686 -0.246334   
     length 2.00021   
     axis 0 0 0   XYZ
    dof rx ry rz
    limits (-20.0 45.0)
           (-30.0 30.0)
           (-30.0 30.0)
  end
  begin
     id 12 
     name upperback
     direction -0.0152834 0.999474 -0.0286152   
     length 2.03728   
     axis 0 0 0   XYZ
    dof rx ry rz
    limits (-20.0 45.0)
           (-30.0 30.0)
           (-30.0 30.0)
  end
  begin
     id 13 
     name thorax
     direction -0.0323701 0.996236 0.0804149   
     length 2.16   
     axis 0 0 0   XYZ
    dof rx ry rz
    limits (-20.0 45.0)
           (-30.0 30.0)
           (-30.0 30.0)
  end
  begin
     id 14 
     name lowerneck
     direction 0.0307935 0.982251 0.185027   
     length 1.43558   
     axis 0 0 0   XYZ
    dof rx ry rz
    limits (-20.0 45.0)
           (-30.0 30.0)
           (-30.0 30.0)
  end
  begin
     id 15 
     name upperneck
     direction -0.0927153 0.994775 0.0427454   
     length 1.44603   
     axis 0 0 0   XYZ
    dof rx ry rz
    limits (-20.0 45.0)
           (-30.0 30.0)
           (-30.0 30.0)
  end
  begin
     id 16
     name head
     direction -0.0341265 0.999406 -0.00472033  
     length 1.45931  
     axis 0 0 0   XYZ
    dof rx ry rz
    limits (-20.0 45.0)
           (-30.0 30.0)
           (-30.0 30.0)
  end
  begin
     id 17 
     name lclavicle
     direction 0.820755 0.555306 -0.134151  
     length 2.66075  
     axis 0 0 0   XYZ
    dof ry rz
    limits (-20.0 10.0)
           (0.0 20.0)
  end
  begin
     id 18 
     name lhumerus
     direction 1 -4.48971e-011 5.24853e-027   
     length 5.0546   
     axis -180 -30 -90   XYZ
    dof rx ry rz
    limits (-60.0 90.0)
           (-90.0 90.0)
           (-90.0 90.0)
  end
  begin
     id 19
     name lradius
     direction 1 -4.48971e-011 2.76575e-028   
     length 3.39013   
     axis -180 -30 -90   XYZ
    dof rx
    limits (-10.0 170.0)
  end
  begin
     id 20
     name lwrist
     direction 1 -4.48939e-011 -2.27826e-027   
     length 1.69507   
     axis 2.17013e-015 90 90   XYZ
    dof ry
    limits (-180.0 0.0)
 end
  begin
     id 21 
     name lhand
     direction 1 -4.49009e-011 -4.55652e-027   
     length 0.572425   
     axis 2.90745e-015 90 90   XYZ
    dof rx rz
    limits (-90.0 90.0)
           (-45.0 45.0)
  end
  begin
     id 22 
     name lfingers
     direction 1 -4.48955e-011 -9.11303e-027   
     length 0.461504   
     axis 5.81489e-015 90 90   XYZ
    dof rx
    limits (0.0 90.0)
  end
  begin
     id 23
     name lthumb
     direction 0.707107 -6.34929e-011 0.707107   
     length 0.66263   
     axis -90 45 2.85299e-015   XYZ
    dof rx rz
    limits (-45.0 45.0)
           (-45.0 45.0)
  end
  begin
     id 24 
     name rclavicle
     direction -0.754477 0.632921 -0.173712   
     length 2.73081  
     axis 0 0 0   XYZ 
    dof ry rz
    limits (-10.0 20.0)
           (-20.0 0.0)
  end
  begin
     id 25 
     name rhumerus
     direction -1 -4.48969e-011 5.1496e-027  
     length 5.0701   
     axis -180 30 90   XYZ
    dof rx ry rz
    limits (-90.0 60.0)
           (-90.0 90.0)
           (-90.0 90.0)
  end
  begin
     id 26 
     name rradius
     direction -1 -4.48967e-011 -7.15624e-028   
     length 3.14957   
     axis -180 30 90   XYZ
    dof rx
    limits (-10.0 170.0)
  end
  begin
     id 27 
     name rwrist
     direction -1 -4.48938e-011 -2.27826e-027   
     length 1.57479   
     axis 2.17013e-015 -90 -90   XYZ
    dof ry
    limits (-180.0 0.0)
  end
  begin
     id 28
     name rhand
     direction -1 -4.49008e-011 -4.55652e-027   
     length 0.718191   
     axis 2.90745e-015 -90 -90   XYZ
    dof rx rz
    limits (-90.0 90.0)
           (-45.0 45.0)
  end
  begin
     id 29
     name rfingers
     direction -1 -4.48953e-011 -9.11303e-027   
     length 0.579024   
     axis 5.81489e-015 -90 -90   XYZ
    dof rx
    limits (0.0 90.0)
  end
  begin
     id 30
     name rthumb
     direction -0.707107 -6.34937e-011 0.707107   
     length 0.831366   
     axis -90 -45 -2.85299e-015   XYZ
    dof rx rz
    limits (-45.0 45.0)
           (-45.0 45.0)
  end
:hierarchy
  begin
    root lhipjoint rhipjoint lowerback
    lhipjoint lfemur
    lfemur ltibia
    ltibia lfoot
    lfoot ltoes
    rhipjoint rfemur
    rfemur rtibia
    rtibia rfoot
    rfoot rtoes
    lowerback upperback
    upperback thorax
    thorax lowerneck lclavicle rclavicle
    lowerneck upperneck
    upperneck head
    lclavicle lhumerus
    lhumerus lradius
    lradius lwrist
    lwrist lhand lthumb
    lhand lfingers
    rclavicle rhumerus
    rhumerus rradius
    rradius rwrist
    rwrist rhand rthumb
    rhand rfingers
  end

#!OML:ASF H:\Male1\Project 1\Capture day 1\Session 1\Male1.ASF
:FULLY-SPECIFIED
:DEGREES
1
root 35.767 14.9402 -0.409291 138.761 -87.1661 -141.901
lowerback 9.44979 0.731302 -0.158582
upperback 6.23034 0.698314 1.79691
thorax 1.14236 0.201254 1.88549
lowerneck -10.4977 4.22638 3.67717
upperneck 20.4738 5.42 -2.65398
head 8.2521 2.47834 -0.956595
rclavicle -2.73329e-015 1.09332e-014
rhumerus -33.0773 4.02418 -85.5855
rradius 32.8195
rwrist -18.374
rhand -16.989 1.34632
rfingers 7.12502
rthumb 9.24595 -28.431
lclavicle -2.73329e-015 1.09332e-014
lhumerus -32.675 8.17912 85.8287
lradius 35.6755
lwrist 1.76826
lhand -21.3181 4.74541
lfingers 7.12502
lthumb 5.0672 34.6648
rfemur -10.6363 10.0568 29.9467
rtibia 37.0429
rfoot -30.1622 -22.1814
rtoes -21.3005
lfemur -22.495 1.70428 -20.0603
ltibia 76.04
lfoot -10.7297 9.02577
ltoes -14.9986
2
root 35.5764 14.9267 -0.414774 136.235 -87.3828 -139.512
lowerback 9.59846 0.876783 0.239571
upperback 6.28771 0.91988 1.49187
thorax 1.12429 0.328572 1.32666
lowerneck -10.4735 4.01275 3.89462
upperneck 20.4688 5.0206 -2.35783
head 8.23085 2.33611 -0.936804
rclavicle -1.04362e-015 1.78906e-015
rhumerus -33.1002 3.42404 -85.8175
rradius 33.1918
rwrist -18.4227
rhand -16.8753 1.26246
rfingers 7.12502
rthumb 9.35571 -28.5099
lclavicle -1.04362e-015 1.78906e-015
lhumerus -32.8454 7.68786 85.4048
lradius 35.0118
lwrist 1.28292
lhand -21.0569 4.75413
lfingers 7.12502
lthumb 5.31944 34.6674
rfemur -9.55016 10.3037 30.196
rtibia 37.0592
rfoot -31.3997 -22.6299
rtoes -20.5363
lfemur -24.346 0.816763 -20.076
ltibia 74.9683
lfoot -11.8256 9.01389
ltoes -13.5156
3
root 35.3867 14.915 -0.418043 137.873 -87.4736 -141.348
lowerback 9.48154 1.12046 0.193416
upperback 6.59289 1.21873 1.4718
thorax 1.49984 0.468999 1.31149
lowerneck -10.5382 3.76776 3.80847
upperneck 20.3526 4.66366 -2.18599
head 8.18482 2.18014 -0.902047
rclavicle 7.25564e-015 7.55382e-015
rhumerus -32.6827 3.33515 -85.6592
rradius 33.4941
rwrist -18.6748
rhand -16.6708 1.2701
rfingers 7.12502
rthumb 9.55295 -28.4933
lclavicle 7.25564e-015 7.55382e-015
lhumerus -32.6291 7.77917 85.3818
lradius 34.2327
lwrist 0.54469
lhand -21.0288 4.64944
lfingers 7.12502
lthumb 5.34653 34.562
rfemur -8.1917 10.4871 30.3372
rtibia 36.671
rfoot -32.3258 -22.6936
rtoes -19.8832
lfemur -25.8463 0.149927 -20.2166
ltibia 73.1317
lfoot -13.2785 8.88729
ltoes -15.9244
4
root 35.1825 14.9272 -0.420497 133.905 -87.611 -137.232
lowerback 9.49346 1.11106 0.466314
upperback 6.4674 1.23711 1.34626
thorax 1.37056 0.493499 1.02569
lowerneck -10.5695 3.72073 3.90173
upperneck 20.5541 4.55261 -2.07425
head 8.25454 2.14255 -0.891075
rclavicle -2.98177e-015 -3.57812e-015
rhumerus -32.8129 3.61313 -85.8768
rradius 33.8927
rwrist -18.9416
rhand -16.559 1.37517
rfingers 7.12502
rthumb 9.66087 -28.3833
lclavicle -2.98177e-015 -3.57812e-015
lhumerus -33.1245 7.97516 84.9969
lradius 33.8235
lwrist 0.117809
lhand -20.9851 5.27168
lfingers 7.12502
lthumb 5.38869 35.1832
rfemur -7.14762 10.559 30.5767
rtibia 36.193
rfoot -32.7778 -22.9161
rtoes -19.4659
lfemur -27.5035 -0.852565 -20.1829
ltibia 70.8894
lfoot -14.3307 9.65418
ltoes -17.5432
5
root 34.9823 14.93 -0.422501 131.484 -87.741 -134.757
lowerback 9.47764 1.19096 0.647178
upperback 6.45738 1.35878 1.23195
thorax 1.37419 0.563279 0.796555
lowerneck -10.5845 3.57604 3.91008
upperneck 20.6173 4.31207 -1.90027
head 8.2671 2.04588 -0.859564
rclavicle 1.87852e-014 -5.1684e-015
rhumerus -32.823 3.66104 -85.9667
rradius 34.2775
rwrist -19.1708
rhand -16.4467 1.399
rfingers 7.12502
rthumb 9.76917 -28.3544
lclavicle 1.87852e-014 -5.1684e-015
lhumerus -33.4005 8.10338 84.6891
lradius 33.2905
lwrist -0.42363
lhand -20.8907 5.52157
lfingers 7.12502
lthumb 5.47989 35.4307
rfemur -5.93862 10.6441 30.7804
rtibia 35.557
rfoot -33.2744 -23.1524
rtoes -18.9878
lfemur -28.7734 -1.72138 -20.132
ltibia 68.2793
lfoot -15.2156 9.98801
ltoes -18.1506
6
root 34.7792 14.9396 -0.423483 128.895 -87.8682 -132.058
lowerback 9.43497 1.25508 0.796828
upperback 6.41002 1.4598 1.12826
thorax 1.35383 0.62252 0.597768
lowerneck -10.5965 3.43985 3.90047
upperneck 20.6803 4.09043 -1.7445
head 8.28002 1.955 -0.829168
rclavicle -8.34896e-015 6.16232e-015
rhumerus -32.881 3.74941 -86.0403
rradius 34.6688
rwrist -19.4027
rhand -16.36 1.41799
rfingers 7.12502
rthumb 9.85286 -28.3315
lclavicle -8.34896e-015 6.16232e-015
lhumerus -33.7261 8.30849 84.37
lradius 32.7985
lwrist -0.935666
lhand -20.8031 5.73563
lfingers 7.12502
lthumb 5.5645 35.6426
rfemur -4.68267 10.6803 30.9552
rtibia 34.7019
rfoot -33.5821 -23.3821
rtoes -18.5657
lfemur -29.794 -2.58121 -20.0563
ltibia 65.2175
lfoot -15.9149 10.2917
ltoes -18.4667
